<?xml version="1.0" encoding="utf-8"?>
<!-- Generator: Adobe Illustrator 22.1.0, SVG Export Plug-In . SVG Version: 6.00 Build 0)  -->
<svg version="1.1" id="Layer_1" xmlns="http://www.w3.org/2000/svg" xmlns:xlink="http://www.w3.org/1999/xlink" x="0px" y="0px"
	 width="30px" height="30px" viewBox="0 0 30 30" style="enable-background:new 0 0 30 30;" xml:space="preserve">
<style type="text/css">
	.st0{fill:url(#SVGID_1_);}
	.st1{fill:#FFFFFF;}
</style>
<g id="Icons">
	<g id="Icons_7_">
		<g>
			
				<linearGradient id="SVGID_1_" gradientUnits="userSpaceOnUse" x1="15" y1="-1029.1884" x2="15" y2="-994.6422" gradientTransform="matrix(1 0 0 -1 0 -998)">
				<stop  offset="9.694000e-02" style="stop-color:#FFD879"/>
				<stop  offset="0.1539" style="stop-color:#FCCB76"/>
				<stop  offset="0.2583" style="stop-color:#F5AA6C"/>
				<stop  offset="0.3976" style="stop-color:#E9755E"/>
				<stop  offset="0.449" style="stop-color:#E45F58"/>
				<stop  offset="0.6786" style="stop-color:#D22A9C"/>
				<stop  offset="1" style="stop-color:#6968DF"/>
			</linearGradient>
			<path class="st0" d="M27.2,30H2.8C1.3,30,0,28.7,0,27.2V2.8C0,1.3,1.3,0,2.8,0h24.4C28.7,0,30,1.3,30,2.8v24.4
				C30,28.7,28.7,30,27.2,30z"/>
			<g>
				<path class="st1" d="M15,6.8c2.7,0,3,0,4.1,0.1c1,0,1.5,0.2,1.9,0.3c0.5,0.2,0.8,0.4,1.2,0.8c0.4,0.4,0.6,0.7,0.8,1.2
					c0.1,0.4,0.3,0.9,0.3,1.9c0,1.1,0.1,1.4,0.1,4.1s0,3-0.1,4.1c0,1-0.2,1.5-0.3,1.9c-0.2,0.5-0.4,0.8-0.8,1.2
					c-0.4,0.4-0.7,0.6-1.2,0.8c-0.4,0.1-0.9,0.3-1.9,0.3c-1.1,0-1.4,0.1-4.1,0.1s-3,0-4.1-0.1c-1,0-1.5-0.2-1.9-0.3
					c-0.5-0.2-0.8-0.4-1.2-0.8c-0.4-0.4-0.6-0.7-0.8-1.2C7,20.6,6.9,20,6.8,19.1c0-1.1-0.1-1.4-0.1-4.1s0-3,0.1-4.1
					c0-1,0.2-1.5,0.3-1.9c0.2-0.5,0.4-0.8,0.8-1.2c0.4-0.4,0.7-0.6,1.2-0.8C9.4,7,10,6.9,10.9,6.8C12,6.8,12.3,6.8,15,6.8 M15,4.9
					c-2.7,0-3.1,0-4.1,0.1C9.8,5.1,9.1,5.2,8.4,5.5C7.8,5.7,7.2,6.1,6.6,6.6C6.1,7.2,5.7,7.8,5.5,8.4C5.2,9.1,5.1,9.8,5,10.9
					S4.9,12.3,4.9,15s0,3.1,0.1,4.1c0.1,1.1,0.2,1.8,0.5,2.4c0.3,0.7,0.6,1.2,1.2,1.8c0.6,0.6,1.1,0.9,1.8,1.2
					c0.6,0.2,1.4,0.4,2.4,0.5c1.1,0.1,1.4,0.1,4.1,0.1s3.1,0,4.1-0.1c1.1-0.1,1.8-0.2,2.4-0.5c0.7-0.3,1.2-0.6,1.8-1.2
					c0.6-0.6,0.9-1.1,1.2-1.8c0.2-0.6,0.4-1.4,0.5-2.4c0.1-1.1,0.1-1.4,0.1-4.1s0-3.1-0.1-4.1c-0.1-1.1-0.2-1.8-0.5-2.4
					c-0.3-0.7-0.6-1.2-1.2-1.8c-0.6-0.6-1.1-0.9-1.8-1.2c-0.6-0.2-1.4-0.4-2.4-0.5C18.1,5,17.7,4.9,15,4.9L15,4.9z"/>
				<path class="st1" d="M15,9.8c-2.8,0-5.2,2.3-5.2,5.2s2.3,5.2,5.2,5.2s5.2-2.3,5.2-5.2S17.8,9.8,15,9.8z M15,18.3
					c-1.8,0-3.4-1.5-3.4-3.4s1.5-3.4,3.4-3.4s3.4,1.5,3.4,3.4C18.4,16.9,16.8,18.3,15,18.3z"/>
				<circle class="st1" cx="20.4" cy="9.6" r="1.2"/>
			</g>
		</g>
	</g>
</g>
</svg>
