<?xml version="1.0" encoding="UTF-8"?>
<!-- Generator: Adobe Illustrator 15.0.2, SVG Export Plug-In . SVG Version: 6.00 Build 0)  -->
<!DOCTYPE svg PUBLIC "-//W3C//DTD SVG 1.1//EN" "http://www.w3.org/Graphics/SVG/1.1/DTD/svg11.dtd">
<svg version="1.1" id="Layer_1" xmlns="http://www.w3.org/2000/svg" xmlns:xlink="http://www.w3.org/1999/xlink" x="0px" y="0px" width="30px" height="30px" viewBox="1 1 30 30" enable-background="new 1 1 30 30" xml:space="preserve">
<g>
	<path fill="#4C75A3" d="M30.969,29.097c0,1.033-0.839,1.872-1.873,1.872H2.873C1.839,30.969,1,30.13,1,29.097V2.888   c0-1.033,0.839-1.872,1.873-1.872h26.223c1.034,0,1.873,0.839,1.873,1.872V29.097z"/>
</g>
<g id="g5608">
	<path id="rect2987" display="none" fill="#4C75A3" d="M4.746,1.016h22.477c2.069,0,3.746,1.677,3.746,3.746v22.477   c0,2.068-1.677,3.746-3.746,3.746H4.746C2.677,30.984,1,29.307,1,27.238V4.762C1,2.693,2.677,1.016,4.746,1.016z"/>
	<path id="path9" fill="#FFFFFF" d="M15.733,22.623h1.399c0,0,0.423-0.047,0.639-0.279c0.198-0.214,0.192-0.615,0.192-0.615   s-0.028-1.877,0.844-2.153c0.859-0.273,1.963,1.814,3.132,2.617c0.884,0.606,1.557,0.474,1.557,0.474l3.126-0.043   c0,0,1.636-0.102,0.86-1.388c-0.063-0.105-0.452-0.95-2.324-2.689c-1.962-1.82-1.699-1.525,0.663-4.673   c1.438-1.917,2.014-3.087,1.834-3.589c-0.172-0.477-1.229-0.351-1.229-0.351l-3.521,0.022c0,0-0.262-0.036-0.455,0.08   c-0.188,0.113-0.311,0.377-0.311,0.377s-0.558,1.484-1.3,2.746c-1.567,2.661-2.194,2.802-2.45,2.636   c-0.597-0.385-0.447-1.547-0.447-2.373c0-2.579,0.391-3.655-0.763-3.934c-0.383-0.092-0.665-0.154-1.643-0.164   c-1.256-0.013-2.319,0.004-2.921,0.299c-0.4,0.197-0.709,0.633-0.521,0.659c0.232,0.031,0.759,0.142,1.039,0.522   c0.36,0.491,0.348,1.593,0.348,1.593s0.208,3.037-0.483,3.414c-0.475,0.259-1.126-0.27-2.524-2.684   c-0.716-1.237-1.256-2.605-1.256-2.605s-0.104-0.255-0.29-0.392C8.701,9.964,8.386,9.911,8.386,9.911L5.041,9.933   c0,0-0.502,0.014-0.686,0.232c-0.165,0.194-0.013,0.596-0.013,0.596s2.619,6.128,5.584,9.216   C12.646,22.809,15.733,22.623,15.733,22.623L15.733,22.623L15.733,22.623z"/>
</g>
</svg>